<svg width="2470" height="5193" viewBox="0 0 2470 5193" fill="none" xmlns="http://www.w3.org/2000/svg">
<path d="M114 43.2197L90.2274 59C84.9759 48.7641 76.3859 27.8658 84.0381 26.1599C91.6904 24.4539 107.201 36.8222 114 43.2197Z" stroke="url(#paint0_linear)" stroke-width="6" stroke-linecap="round" stroke-linejoin="round"/>
<path d="M1264.24 97C1272.72 102.588 1281.46 120.481 1257.16 125.313C1232.86 130.145 1235.91 144.994 1239.23 151.486" stroke="url(#paint1_linear)" stroke-width="7" stroke-linecap="round" stroke-linejoin="round"/>
<path d="M1113.24 2226C1121.72 2231.59 1130.46 2249.48 1106.16 2254.31C1081.86 2259.14 1084.91 2273.99 1088.23 2280.49" stroke="url(#paint2_linear)" stroke-width="7" stroke-linecap="round" stroke-linejoin="round"/>
<path d="M166.069 797.883C172.305 796.598 184.102 800.657 175.478 813.564C166.853 826.47 174.781 831.702 179.13 833.105" stroke="url(#paint3_linear)" stroke-width="4" stroke-linecap="round" stroke-linejoin="round"/>
<path d="M15.0686 2926.88C21.3047 2925.6 33.1022 2929.66 24.4776 2942.56C15.853 2955.47 23.7806 2960.7 28.1303 2962.11" stroke="url(#paint4_linear)" stroke-width="4" stroke-linecap="round" stroke-linejoin="round"/>
<rect x="1471.57" y="781.732" width="40" height="40" transform="rotate(-45.9137 1471.57 781.732)" fill="url(#paint5_linear)"/>
<rect x="1320.57" y="2910.73" width="40" height="40" transform="rotate(-45.9137 1320.57 2910.73)" fill="url(#paint6_linear)"/>
<rect x="1122" y="3335.73" width="40" height="40" transform="rotate(-45.9137 1122 3335.73)" fill="url(#paint7_linear)"/>
<rect x="139.566" y="5027.73" width="40" height="40" transform="rotate(-45.9137 139.566 5027.73)" fill="url(#paint8_linear)"/>
<rect x="1861" y="205.732" width="40" height="40" transform="rotate(-45.9137 1861 205.732)" fill="url(#paint9_linear)"/>
<rect x="1710" y="2334.73" width="40" height="40" transform="rotate(-45.9137 1710 2334.73)" fill="url(#paint10_linear)"/>
<rect x="529" y="4451.73" width="40" height="40" transform="rotate(-45.9137 529 4451.73)" fill="url(#paint11_linear)"/>
<path d="M1451 802.408L1464.86 826.408H1437.14L1451 802.408Z" fill="url(#paint12_linear)"/>
<path d="M1300 2931.41L1313.86 2955.41H1286.14L1300 2931.41Z" fill="url(#paint13_linear)"/>
<path d="M119 5048.41L132.856 5072.41H105.144L119 5048.41Z" fill="url(#paint14_linear)"/>
<path d="M521 390L541 376" stroke="url(#paint15_linear)" stroke-width="6" stroke-linecap="round"/>
<path d="M370 2519L390 2505" stroke="url(#paint16_linear)" stroke-width="6" stroke-linecap="round"/>
<path d="M1668.41 26.3092L1677.59 3.69082" stroke="url(#paint17_linear)" stroke-width="5" stroke-linecap="round"/>
<path d="M1517.41 2155.31L1526.59 2132.69" stroke="url(#paint18_linear)" stroke-width="5" stroke-linecap="round"/>
<path d="M336.406 4272.31L345.594 4249.69" stroke="url(#paint19_linear)" stroke-width="5" stroke-linecap="round"/>
<path d="M1858.32 882.092L1834.57 866.278C1841.98 857.475 1857.92 841.467 1862.46 847.863C1866.99 854.259 1861.59 873.348 1858.32 882.092Z" stroke="url(#paint20_linear)" stroke-width="6" stroke-linecap="round" stroke-linejoin="round"/>
<path d="M1707.32 3011.09L1683.57 2995.28C1690.98 2986.47 1706.92 2970.47 1711.46 2976.86C1715.99 2983.26 1710.59 3002.35 1707.32 3011.09Z" stroke="url(#paint21_linear)" stroke-width="6" stroke-linecap="round" stroke-linejoin="round"/>
<path d="M526.32 5128.09L502.571 5112.28C509.977 5103.47 525.924 5087.47 530.458 5093.86C534.992 5100.26 529.589 5119.35 526.32 5128.09Z" stroke="url(#paint22_linear)" stroke-width="6" stroke-linecap="round" stroke-linejoin="round"/>
<path d="M1433 4399.22L1409.23 4415C1403.98 4404.76 1395.39 4383.87 1403.04 4382.16C1410.69 4380.45 1426.2 4392.82 1433 4399.22Z" stroke="url(#paint23_linear)" stroke-width="6" stroke-linecap="round" stroke-linejoin="round"/>
<path d="M1485.07 5153.88C1491.3 5152.6 1503.1 5156.66 1494.48 5169.56C1485.85 5182.47 1493.78 5187.7 1498.13 5189.11" stroke="url(#paint24_linear)" stroke-width="4" stroke-linecap="round" stroke-linejoin="round"/>
<path d="M1840 4746L1860 4732" stroke="url(#paint25_linear)" stroke-width="6" stroke-linecap="round"/>
<path d="M1001.2 929.03C999.295 934.044 991.082 940.599 985.8 928.64C980.517 916.68 973.218 919.954 970.256 922.413" stroke="url(#paint26_linear)" stroke-width="4" stroke-linecap="round" stroke-linejoin="round"/>
<path d="M850.198 3058.03C848.295 3063.04 840.082 3069.6 834.8 3057.64C829.517 3045.68 822.218 3048.95 819.256 3051.41" stroke="url(#paint27_linear)" stroke-width="4" stroke-linecap="round" stroke-linejoin="round"/>
<path d="M546 1297.22L522.227 1313C516.976 1302.76 508.386 1281.87 516.038 1280.16C523.69 1278.45 539.201 1290.82 546 1297.22Z" stroke="url(#paint28_linear)" stroke-width="6" stroke-linecap="round" stroke-linejoin="round"/>
<path d="M395 3426.22L371.227 3442C365.976 3431.76 357.386 3410.87 365.038 3409.16C372.69 3407.45 388.201 3419.82 395 3426.22Z" stroke="url(#paint29_linear)" stroke-width="6" stroke-linecap="round" stroke-linejoin="round"/>
<path d="M2073.07 6.8825C2079.3 5.59846 2091.1 9.65705 2082.48 22.5637C2073.85 35.4703 2081.78 40.702 2086.13 42.1054" stroke="url(#paint30_linear)" stroke-width="4" stroke-linecap="round" stroke-linejoin="round"/>
<path d="M1922.07 2135.88C1928.3 2134.6 1940.1 2138.66 1931.48 2151.56C1922.85 2164.47 1930.78 2169.7 1935.13 2171.11" stroke="url(#paint31_linear)" stroke-width="4" stroke-linecap="round" stroke-linejoin="round"/>
<path d="M741.069 4252.88C747.305 4251.6 759.102 4255.66 750.478 4268.56C741.853 4281.47 749.781 4286.7 754.13 4288.11" stroke="url(#paint32_linear)" stroke-width="4" stroke-linecap="round" stroke-linejoin="round"/>
<path d="M2453 506.22L2429.23 522C2423.98 511.764 2415.39 490.866 2423.04 489.16C2430.69 487.454 2446.2 499.822 2453 506.22Z" stroke="url(#paint33_linear)" stroke-width="6" stroke-linecap="round" stroke-linejoin="round"/>
<path d="M2302 2635.22L2278.23 2651C2272.98 2640.76 2264.39 2619.87 2272.04 2618.16C2279.69 2616.45 2295.2 2628.82 2302 2635.22Z" stroke="url(#paint34_linear)" stroke-width="6" stroke-linecap="round" stroke-linejoin="round"/>
<path d="M1121 4752.22L1097.23 4768C1091.98 4757.76 1083.39 4736.87 1091.04 4735.16C1098.69 4733.45 1114.2 4745.82 1121 4752.22Z" stroke="url(#paint35_linear)" stroke-width="6" stroke-linecap="round" stroke-linejoin="round"/>
<path d="M1553.24 1575C1561.72 1580.59 1570.46 1598.48 1546.16 1603.31C1521.86 1608.14 1524.91 1622.99 1528.23 1629.49" stroke="url(#paint36_linear)" stroke-width="7" stroke-linecap="round" stroke-linejoin="round"/>
<path d="M1402.24 3704C1410.72 3709.59 1419.46 3727.48 1395.16 3732.31C1370.86 3737.14 1373.91 3751.99 1377.23 3758.49" stroke="url(#paint37_linear)" stroke-width="7" stroke-linecap="round" stroke-linejoin="round"/>
<path d="M243.069 2051.19C249.305 2049.91 261.102 2053.97 252.478 2066.87C243.853 2079.78 251.781 2085.01 256.13 2086.41" stroke="url(#paint38_linear)" stroke-width="4" stroke-linecap="round" stroke-linejoin="round"/>
<path d="M92.0686 4180.19C98.3047 4178.91 110.102 4182.97 101.478 4195.87C92.853 4208.78 100.781 4214.01 105.13 4215.41" stroke="url(#paint39_linear)" stroke-width="4" stroke-linecap="round" stroke-linejoin="round"/>
<rect x="1350" y="1918.73" width="40" height="40" transform="rotate(-45.9137 1350 1918.73)" fill="url(#paint40_linear)"/>
<rect x="1199" y="4047.73" width="40" height="40" transform="rotate(-45.9137 1199 4047.73)" fill="url(#paint41_linear)"/>
<rect x="1938" y="1459.04" width="40" height="40" transform="rotate(-45.9137 1938 1459.04)" fill="url(#paint42_linear)"/>
<rect x="1787" y="3588.04" width="40" height="40" transform="rotate(-45.9137 1787 3588.04)" fill="url(#paint43_linear)"/>
<path d="M2179.24 1202.69C2187.72 1208.28 2196.46 1226.17 2172.16 1231C2147.86 1235.84 2150.91 1250.69 2154.23 1257.18" stroke="url(#paint44_linear)" stroke-width="7" stroke-linecap="round" stroke-linejoin="round"/>
<path d="M2028.24 3331.69C2036.72 3337.28 2045.46 3355.17 2021.16 3360C1996.86 3364.84 1999.91 3379.69 2003.23 3386.18" stroke="url(#paint45_linear)" stroke-width="7" stroke-linecap="round" stroke-linejoin="round"/>
<rect x="2413" y="3215.73" width="40" height="40" transform="rotate(-45.9137 2413 3215.73)" fill="url(#paint46_linear)"/>
<path d="M1528 2055.72L1541.86 2079.72H1514.14L1528 2055.72Z" fill="url(#paint47_linear)"/>
<path d="M1377 4184.72L1390.86 4208.72H1363.14L1377 4184.72Z" fill="url(#paint48_linear)"/>
<path d="M374 1643L394 1629" stroke="url(#paint49_linear)" stroke-width="6" stroke-linecap="round"/>
<path d="M223 3772L243 3758" stroke="url(#paint50_linear)" stroke-width="6" stroke-linecap="round"/>
<path d="M1745.41 1279.62L1754.59 1257" stroke="url(#paint51_linear)" stroke-width="5" stroke-linecap="round"/>
<path d="M1594.41 3408.62L1603.59 3386" stroke="url(#paint52_linear)" stroke-width="5" stroke-linecap="round"/>
<path d="M1935.32 2135.4L1911.57 2119.59C1918.98 2110.78 1934.92 2094.78 1939.46 2101.17C1943.99 2107.57 1938.59 2126.66 1935.32 2135.4Z" stroke="url(#paint53_linear)" stroke-width="6" stroke-linecap="round" stroke-linejoin="round"/>
<path d="M1784.32 4264.4L1760.57 4248.59C1767.98 4239.78 1783.92 4223.78 1788.46 4230.17C1792.99 4236.57 1787.59 4255.66 1784.32 4264.4Z" stroke="url(#paint54_linear)" stroke-width="6" stroke-linecap="round" stroke-linejoin="round"/>
<path d="M901.198 1839.03C899.295 1844.04 891.082 1850.6 885.8 1838.64C880.517 1826.68 873.218 1829.95 870.256 1832.41" stroke="url(#paint55_linear)" stroke-width="4" stroke-linecap="round" stroke-linejoin="round"/>
<path d="M750.198 3968.03C748.295 3973.04 740.082 3979.6 734.8 3967.64C729.517 3955.68 722.218 3958.95 719.256 3961.41" stroke="url(#paint56_linear)" stroke-width="4" stroke-linecap="round" stroke-linejoin="round"/>
<path d="M2215 1860L2235 1846" stroke="url(#paint57_linear)" stroke-width="6" stroke-linecap="round"/>
<path d="M2064 3989L2084 3975" stroke="url(#paint58_linear)" stroke-width="6" stroke-linecap="round"/>
<defs>
<linearGradient id="paint0_linear" x1="61.3068" y1="30.9758" x2="98.9669" y2="45.3507" gradientUnits="userSpaceOnUse">
<stop offset="0.275608" stop-color="#FC4A1A"/>
<stop offset="1" stop-color="#F7B733"/>
</linearGradient>
<linearGradient id="paint1_linear" x1="1255" y1="97" x2="1255" y2="151.486" gradientUnits="userSpaceOnUse">
<stop offset="0.0572917" stop-color="#CF8BF3"/>
<stop offset="1" stop-color="#FDB99B"/>
</linearGradient>
<linearGradient id="paint2_linear" x1="1104" y1="2226" x2="1104" y2="2280.49" gradientUnits="userSpaceOnUse">
<stop offset="0.0572917" stop-color="#CF8BF3"/>
<stop offset="1" stop-color="#FDB99B"/>
</linearGradient>
<linearGradient id="paint3_linear" x1="161.976" y1="801.976" x2="186.118" y2="826.118" gradientUnits="userSpaceOnUse">
<stop offset="0.0572917" stop-color="#CF8BF3"/>
<stop offset="1" stop-color="#FDB99B"/>
</linearGradient>
<linearGradient id="paint4_linear" x1="10.9756" y1="2930.98" x2="35.1178" y2="2955.12" gradientUnits="userSpaceOnUse">
<stop offset="0.0572917" stop-color="#CF8BF3"/>
<stop offset="1" stop-color="#FDB99B"/>
</linearGradient>
<linearGradient id="paint5_linear" x1="1480.26" y1="773.311" x2="1502.81" y2="823.832" gradientUnits="userSpaceOnUse">
<stop stop-color="#F64F59"/>
<stop offset="1" stop-color="#D6B6E7"/>
</linearGradient>
<linearGradient id="paint6_linear" x1="1329.26" y1="2902.31" x2="1351.81" y2="2952.83" gradientUnits="userSpaceOnUse">
<stop stop-color="#F64F59"/>
<stop offset="1" stop-color="#D6B6E7"/>
</linearGradient>
<linearGradient id="paint7_linear" x1="1130.69" y1="3327.31" x2="1153.24" y2="3377.83" gradientUnits="userSpaceOnUse">
<stop stop-color="#F64F59"/>
<stop offset="1" stop-color="#D6B6E7"/>
</linearGradient>
<linearGradient id="paint8_linear" x1="148.26" y1="5019.31" x2="170.808" y2="5069.83" gradientUnits="userSpaceOnUse">
<stop stop-color="#F64F59"/>
<stop offset="1" stop-color="#D6B6E7"/>
</linearGradient>
<linearGradient id="paint9_linear" x1="1869.69" y1="197.311" x2="1892.24" y2="247.832" gradientUnits="userSpaceOnUse">
<stop stop-color="#4FF660" stop-opacity="0.44"/>
</linearGradient>
<linearGradient id="paint10_linear" x1="1718.69" y1="2326.31" x2="1741.24" y2="2376.83" gradientUnits="userSpaceOnUse">
<stop stop-color="#4FF660" stop-opacity="0.44"/>
</linearGradient>
<linearGradient id="paint11_linear" x1="537.694" y1="4443.31" x2="560.242" y2="4493.83" gradientUnits="userSpaceOnUse">
<stop stop-color="#4FF660" stop-opacity="0.44"/>
</linearGradient>
<linearGradient id="paint12_linear" x1="1451" y1="802.408" x2="1451" y2="834.408" gradientUnits="userSpaceOnUse">
<stop stop-color="#1CD8D2"/>
<stop offset="1" stop-color="#93EDC7"/>
</linearGradient>
<linearGradient id="paint13_linear" x1="1300" y1="2931.41" x2="1300" y2="2963.41" gradientUnits="userSpaceOnUse">
<stop stop-color="#1CD8D2"/>
<stop offset="1" stop-color="#93EDC7"/>
</linearGradient>
<linearGradient id="paint14_linear" x1="119" y1="5048.41" x2="119" y2="5080.41" gradientUnits="userSpaceOnUse">
<stop stop-color="#1CD8D2"/>
<stop offset="1" stop-color="#93EDC7"/>
</linearGradient>
<linearGradient id="paint15_linear" x1="531" y1="376" x2="531" y2="390" gradientUnits="userSpaceOnUse">
<stop stop-color="#FF7E5F"/>
<stop offset="1" stop-color="#FEB47B"/>
</linearGradient>
<linearGradient id="paint16_linear" x1="380" y1="2505" x2="380" y2="2519" gradientUnits="userSpaceOnUse">
<stop stop-color="#FF7E5F"/>
<stop offset="1" stop-color="#FEB47B"/>
</linearGradient>
<linearGradient id="paint17_linear" x1="1669.2" y1="9.12276" x2="1676.8" y2="20.8773" gradientUnits="userSpaceOnUse">
<stop stop-color="#FF7E5F"/>
<stop offset="1" stop-color="#FEB47B"/>
</linearGradient>
<linearGradient id="paint18_linear" x1="1518.2" y1="2138.12" x2="1525.8" y2="2149.88" gradientUnits="userSpaceOnUse">
<stop stop-color="#FF7E5F"/>
<stop offset="1" stop-color="#FEB47B"/>
</linearGradient>
<linearGradient id="paint19_linear" x1="337.198" y1="4255.12" x2="344.802" y2="4266.88" gradientUnits="userSpaceOnUse">
<stop stop-color="#FF7E5F"/>
<stop offset="1" stop-color="#FEB47B"/>
</linearGradient>
<linearGradient id="paint20_linear" x1="1849.22" y1="828.766" x2="1850.54" y2="869.055" gradientUnits="userSpaceOnUse">
<stop offset="0.275608" stop-color="#FC4A1A"/>
<stop offset="1" stop-color="#F7B733"/>
</linearGradient>
<linearGradient id="paint21_linear" x1="1698.22" y1="2957.77" x2="1699.54" y2="2998.06" gradientUnits="userSpaceOnUse">
<stop offset="0.275608" stop-color="#FC4A1A"/>
<stop offset="1" stop-color="#F7B733"/>
</linearGradient>
<linearGradient id="paint22_linear" x1="517.221" y1="5074.77" x2="518.538" y2="5115.06" gradientUnits="userSpaceOnUse">
<stop offset="0.275608" stop-color="#FC4A1A"/>
<stop offset="1" stop-color="#F7B733"/>
</linearGradient>
<linearGradient id="paint23_linear" x1="1380.31" y1="4386.98" x2="1417.97" y2="4401.35" gradientUnits="userSpaceOnUse">
<stop offset="0.275608" stop-color="#FC4A1A"/>
<stop offset="1" stop-color="#F7B733"/>
</linearGradient>
<linearGradient id="paint24_linear" x1="1480.98" y1="5157.98" x2="1505.12" y2="5182.12" gradientUnits="userSpaceOnUse">
<stop offset="0.0572917" stop-color="#CF8BF3"/>
<stop offset="1" stop-color="#FDB99B"/>
</linearGradient>
<linearGradient id="paint25_linear" x1="1850" y1="4732" x2="1850" y2="4746" gradientUnits="userSpaceOnUse">
<stop stop-color="#FF7E5F"/>
<stop offset="1" stop-color="#FEB47B"/>
</linearGradient>
<linearGradient id="paint26_linear" x1="1000.14" y1="924.272" x2="972.07" y2="930.536" gradientUnits="userSpaceOnUse">
<stop offset="0.0572917" stop-color="#CF8BF3"/>
<stop offset="1" stop-color="#FDB99B"/>
</linearGradient>
<linearGradient id="paint27_linear" x1="849.136" y1="3053.27" x2="821.07" y2="3059.54" gradientUnits="userSpaceOnUse">
<stop offset="0.0572917" stop-color="#CF8BF3"/>
<stop offset="1" stop-color="#FDB99B"/>
</linearGradient>
<linearGradient id="paint28_linear" x1="493.307" y1="1284.98" x2="530.967" y2="1299.35" gradientUnits="userSpaceOnUse">
<stop offset="0.275608" stop-color="#FC4A1A"/>
<stop offset="1" stop-color="#F7B733"/>
</linearGradient>
<linearGradient id="paint29_linear" x1="342.307" y1="3413.98" x2="379.967" y2="3428.35" gradientUnits="userSpaceOnUse">
<stop offset="0.275608" stop-color="#FC4A1A"/>
<stop offset="1" stop-color="#F7B733"/>
</linearGradient>
<linearGradient id="paint30_linear" x1="2068.98" y1="10.9756" x2="2093.12" y2="35.1178" gradientUnits="userSpaceOnUse">
<stop offset="0.0572917" stop-color="#CF8BF3"/>
<stop offset="1" stop-color="#FDB99B"/>
</linearGradient>
<linearGradient id="paint31_linear" x1="1917.98" y1="2139.98" x2="1942.12" y2="2164.12" gradientUnits="userSpaceOnUse">
<stop offset="0.0572917" stop-color="#CF8BF3"/>
<stop offset="1" stop-color="#FDB99B"/>
</linearGradient>
<linearGradient id="paint32_linear" x1="736.976" y1="4256.98" x2="761.118" y2="4281.12" gradientUnits="userSpaceOnUse">
<stop offset="0.0572917" stop-color="#CF8BF3"/>
<stop offset="1" stop-color="#FDB99B"/>
</linearGradient>
<linearGradient id="paint33_linear" x1="2400.31" y1="493.976" x2="2437.97" y2="508.351" gradientUnits="userSpaceOnUse">
<stop offset="0.275608" stop-color="#FC4A1A"/>
<stop offset="1" stop-color="#F7B733"/>
</linearGradient>
<linearGradient id="paint34_linear" x1="2249.31" y1="2622.98" x2="2286.97" y2="2637.35" gradientUnits="userSpaceOnUse">
<stop offset="0.275608" stop-color="#FC4A1A"/>
<stop offset="1" stop-color="#F7B733"/>
</linearGradient>
<linearGradient id="paint35_linear" x1="1068.31" y1="4739.98" x2="1105.97" y2="4754.35" gradientUnits="userSpaceOnUse">
<stop offset="0.275608" stop-color="#FC4A1A"/>
<stop offset="1" stop-color="#F7B733"/>
</linearGradient>
<linearGradient id="paint36_linear" x1="1544" y1="1575" x2="1544" y2="1629.49" gradientUnits="userSpaceOnUse">
<stop offset="0.0572917" stop-color="#CF8BF3"/>
<stop offset="1" stop-color="#FDB99B"/>
</linearGradient>
<linearGradient id="paint37_linear" x1="1393" y1="3704" x2="1393" y2="3758.49" gradientUnits="userSpaceOnUse">
<stop offset="0.0572917" stop-color="#CF8BF3"/>
<stop offset="1" stop-color="#FDB99B"/>
</linearGradient>
<linearGradient id="paint38_linear" x1="238.976" y1="2055.28" x2="263.118" y2="2079.43" gradientUnits="userSpaceOnUse">
<stop offset="0.0572917" stop-color="#CF8BF3"/>
<stop offset="1" stop-color="#FDB99B"/>
</linearGradient>
<linearGradient id="paint39_linear" x1="87.9756" y1="4184.28" x2="112.118" y2="4208.43" gradientUnits="userSpaceOnUse">
<stop offset="0.0572917" stop-color="#CF8BF3"/>
<stop offset="1" stop-color="#FDB99B"/>
</linearGradient>
<linearGradient id="paint40_linear" x1="1358.69" y1="1910.31" x2="1381.24" y2="1960.83" gradientUnits="userSpaceOnUse">
<stop stop-color="#F64F59"/>
<stop offset="1" stop-color="#D6B6E7"/>
</linearGradient>
<linearGradient id="paint41_linear" x1="1207.69" y1="4039.31" x2="1230.24" y2="4089.83" gradientUnits="userSpaceOnUse">
<stop stop-color="#F64F59"/>
<stop offset="1" stop-color="#D6B6E7"/>
</linearGradient>
<linearGradient id="paint42_linear" x1="1946.69" y1="1450.62" x2="1969.24" y2="1501.14" gradientUnits="userSpaceOnUse">
<stop stop-color="#4FF660" stop-opacity="0.44"/>
</linearGradient>
<linearGradient id="paint43_linear" x1="1795.69" y1="3579.62" x2="1818.24" y2="3630.14" gradientUnits="userSpaceOnUse">
<stop stop-color="#4FF660" stop-opacity="0.44"/>
</linearGradient>
<linearGradient id="paint44_linear" x1="2170" y1="1202.69" x2="2170" y2="1257.18" gradientUnits="userSpaceOnUse">
<stop offset="0.0572917" stop-color="#CF8BF3"/>
<stop offset="1" stop-color="#FDB99B"/>
</linearGradient>
<linearGradient id="paint45_linear" x1="2019" y1="3331.69" x2="2019" y2="3386.18" gradientUnits="userSpaceOnUse">
<stop offset="0.0572917" stop-color="#CF8BF3"/>
<stop offset="1" stop-color="#FDB99B"/>
</linearGradient>
<linearGradient id="paint46_linear" x1="2421.69" y1="3207.31" x2="2444.24" y2="3257.83" gradientUnits="userSpaceOnUse">
<stop stop-color="#4FF660" stop-opacity="0.44"/>
</linearGradient>
<linearGradient id="paint47_linear" x1="1528" y1="2055.72" x2="1528" y2="2087.72" gradientUnits="userSpaceOnUse">
<stop stop-color="#1CD8D2"/>
<stop offset="1" stop-color="#93EDC7"/>
</linearGradient>
<linearGradient id="paint48_linear" x1="1377" y1="4184.72" x2="1377" y2="4216.72" gradientUnits="userSpaceOnUse">
<stop stop-color="#1CD8D2"/>
<stop offset="1" stop-color="#93EDC7"/>
</linearGradient>
<linearGradient id="paint49_linear" x1="384" y1="1629" x2="384" y2="1643" gradientUnits="userSpaceOnUse">
<stop stop-color="#FF7E5F"/>
<stop offset="1" stop-color="#FEB47B"/>
</linearGradient>
<linearGradient id="paint50_linear" x1="233" y1="3758" x2="233" y2="3772" gradientUnits="userSpaceOnUse">
<stop stop-color="#FF7E5F"/>
<stop offset="1" stop-color="#FEB47B"/>
</linearGradient>
<linearGradient id="paint51_linear" x1="1746.2" y1="1262.43" x2="1753.8" y2="1274.19" gradientUnits="userSpaceOnUse">
<stop stop-color="#FF7E5F"/>
<stop offset="1" stop-color="#FEB47B"/>
</linearGradient>
<linearGradient id="paint52_linear" x1="1595.2" y1="3391.43" x2="1602.8" y2="3403.19" gradientUnits="userSpaceOnUse">
<stop stop-color="#FF7E5F"/>
<stop offset="1" stop-color="#FEB47B"/>
</linearGradient>
<linearGradient id="paint53_linear" x1="1926.22" y1="2082.08" x2="1927.54" y2="2122.36" gradientUnits="userSpaceOnUse">
<stop offset="0.275608" stop-color="#FC4A1A"/>
<stop offset="1" stop-color="#F7B733"/>
</linearGradient>
<linearGradient id="paint54_linear" x1="1775.22" y1="4211.08" x2="1776.54" y2="4251.36" gradientUnits="userSpaceOnUse">
<stop offset="0.275608" stop-color="#FC4A1A"/>
<stop offset="1" stop-color="#F7B733"/>
</linearGradient>
<linearGradient id="paint55_linear" x1="900.136" y1="1834.27" x2="872.07" y2="1840.54" gradientUnits="userSpaceOnUse">
<stop offset="0.0572917" stop-color="#CF8BF3"/>
<stop offset="1" stop-color="#FDB99B"/>
</linearGradient>
<linearGradient id="paint56_linear" x1="749.136" y1="3963.27" x2="721.07" y2="3969.54" gradientUnits="userSpaceOnUse">
<stop offset="0.0572917" stop-color="#CF8BF3"/>
<stop offset="1" stop-color="#FDB99B"/>
</linearGradient>
<linearGradient id="paint57_linear" x1="2225" y1="1846" x2="2225" y2="1860" gradientUnits="userSpaceOnUse">
<stop stop-color="#FF7E5F"/>
<stop offset="1" stop-color="#FEB47B"/>
</linearGradient>
<linearGradient id="paint58_linear" x1="2074" y1="3975" x2="2074" y2="3989" gradientUnits="userSpaceOnUse">
<stop stop-color="#FF7E5F"/>
<stop offset="1" stop-color="#FEB47B"/>
</linearGradient>
</defs>
</svg>
